<?xml version="1.0" encoding="UTF-8"?>
<svg width="495px" height="143px" viewBox="0 0 495 143" version="1.1" xmlns="http://www.w3.org/2000/svg" xmlns:xlink="http://www.w3.org/1999/xlink">
    <!-- Generator: Sketch 51.1 (57501) - http://www.bohemiancoding.com/sketch -->
    <title>Group</title>
    <desc>Created with Sketch.</desc>
    <defs></defs>
    <g id="Logo" stroke="none" stroke-width="1" fill="none" fill-rule="evenodd">
        <g id="Color-Logo" transform="translate(-29.000000, -46.000000)">
            <g id="Group" transform="translate(29.000000, 46.000000)">
                <path d="M0.146874785,56.265625 L0.146874785,40.7265625 L13.5765623,40.7265625 L13.5765623,20.40625 L30.8031248,20.40625 L30.8031248,40.7265625 L51.4046873,40.7265625 L51.4046873,56.265625 L30.8031248,56.265625 L30.8031248,83.828125 C30.8031248,85.8906353 31.084372,87.624993 31.6468748,89.03125 C32.2562528,90.5312575 32.9124963,91.632809 33.6156248,92.3359375 C34.459379,93.1328165 35.3968696,93.7187481 36.4281248,94.09375 C37.4125047,94.4218766 38.4671817,94.5859375 39.5921873,94.5859375 C41.0921948,94.5859375 42.4515562,94.3515648 43.6703123,93.8828125 C44.8890684,93.4140602 45.9906199,92.8281285 46.9749998,92.125 L53.3031248,106.257812 C51.3343649,107.570319 48.8734521,108.648433 45.9203123,109.492188 C43.0140478,110.335942 40.037515,110.757812 36.9906248,110.757812 C33.7562336,110.757812 30.6390773,110.171881 27.6390623,109 C24.8734235,107.92187 22.3890733,106.281261 20.1859373,104.078125 C17.9828013,101.874989 16.3421927,99.3437643 15.2640623,96.484375 C14.1390567,93.5312352 13.5765623,90.2265808 13.5765623,86.5703125 L13.5765623,56.265625 L0.146874785,56.265625 Z M72.3062499,109 L72.3062499,0.15625 L89.5328124,0.15625 L89.5328124,48.953125 C91.3609465,46.3749871 93.8452967,44.1015723 96.9859374,42.1328125 C100.267204,40.0703022 104.274976,39.0390625 109.009375,39.0390625 C112.290641,39.0390625 115.431235,39.6015569 118.43125,40.7265625 C121.337514,41.8046929 124.009363,43.492176 126.446875,45.7890625 C128.650011,47.8515728 130.45468,50.5468584 131.860937,53.875 C133.220319,57.1093912 133.9,60.7421673 133.9,64.7734375 L133.9,109 L116.603125,109 L116.603125,69.1328125 C116.603125,66.7421755 116.251566,64.6562589 115.548437,62.875 C114.798434,60.9999906 113.814068,59.5234429 112.595312,58.4453125 C111.282806,57.2734316 109.900007,56.4296901 108.446875,55.9140625 C107.040618,55.3984349 105.400009,55.140625 103.525,55.140625 C101.55624,55.140625 99.8687569,55.4218722 98.4624999,55.984375 C97.1031181,56.5468778 95.8140685,57.273433 94.5953124,58.1640625 C93.517182,58.9609415 92.5328168,59.9218694 91.6421874,61.046875 C90.7515579,62.1718806 90.0484399,63.179683 89.5328124,64.0703125 L89.5328124,109 L72.3062499,109 Z M155.926562,109 L155.926562,40.7265625 L172.309375,40.7265625 L172.309375,50.7109375 C173.950008,47.7577977 176.364046,45.0625122 179.551562,42.625 C182.739078,40.234363 186.629664,39.0390625 191.223437,39.0390625 C192.910946,39.0390625 194.715615,39.2031234 196.6375,39.53125 C198.840636,39.9062519 200.856241,40.445309 202.684375,41.1484375 L196.6375,56.7578125 C195.55937,56.1953097 194.387506,55.7968762 193.121875,55.5625 C191.715618,55.2812486 190.262507,55.140625 188.7625,55.140625 C184.73123,55.140625 181.47345,56.1249902 178.989062,58.09375 C176.4578,60.1093851 174.535944,62.1953017 173.223437,64.3515625 L173.223437,109 L155.926562,109 Z M302.073438,142.117188 L302.073438,40.7265625 L318.034375,40.7265625 L318.034375,49.65625 C319.815634,47.0312369 322.487482,44.570324 326.05,42.2734375 C329.378142,40.1171767 333.667161,39.0390625 338.917188,39.0390625 C343.135959,39.0390625 347.284355,39.9296786 351.3625,41.7109375 C355.39377,43.4453212 358.90936,45.9062341 361.909375,49.09375 C364.862515,52.1875155 367.276553,55.9609152 369.151563,60.4140625 C370.979697,64.7734593 371.89375,69.601536 371.89375,74.8984375 C371.89375,80.1484638 370.979697,84.9531032 369.151563,89.3125 C367.276553,93.7656473 364.862515,97.539047 361.909375,100.632812 C358.862485,103.820328 355.323458,106.304679 351.292188,108.085938 C347.214042,109.867196 343.042209,110.757812 338.776563,110.757812 C336.104674,110.757812 333.643761,110.429691 331.39375,109.773438 C329.237489,109.164059 327.362508,108.367192 325.76875,107.382812 C323.846865,106.210932 322.510941,105.273441 321.760938,104.570312 C320.729682,103.585933 319.932815,102.718754 319.370313,101.96875 L319.370313,142.117188 L302.073438,142.117188 Z M319.370313,85.09375 C320.77657,87.5781374 322.839049,89.7812404 325.557813,91.703125 C328.276576,93.6250096 331.721854,94.5859375 335.89375,94.5859375 C341.565653,94.5859375 346.065608,92.7109563 349.39375,88.9609375 C352.675016,85.257794 354.315625,80.5703409 354.315625,74.8984375 C354.315625,69.1796589 352.675016,64.4687685 349.39375,60.765625 C346.065608,57.0156062 341.565653,55.140625 335.89375,55.140625 C331.721854,55.140625 328.276576,56.1015529 325.557813,58.0234375 C322.839049,59.9453221 320.77657,62.1484251 319.370313,64.6328125 L319.370313,85.09375 Z M389.35,18.71875 C389.35,15.5312341 390.451552,12.8359485 392.654688,10.6328125 C394.857824,8.42967648 397.553109,7.328125 400.740625,7.328125 C403.881266,7.328125 406.553114,8.42967648 408.75625,10.6328125 C410.959386,12.8359485 412.060938,15.5312341 412.060938,18.71875 C412.060938,21.9062659 410.959386,24.6015515 408.75625,26.8046875 C406.553114,29.0078235 403.881266,30.109375 400.740625,30.109375 C397.553109,30.109375 394.857824,29.0078235 392.654688,26.8046875 C390.451552,24.6015515 389.35,21.9062659 389.35,18.71875 Z M392.092188,109 L392.092188,40.7265625 L409.389063,40.7265625 L409.389063,109 L392.092188,109 Z M429.517188,74.8984375 C429.517188,69.9296627 430.478116,65.2422095 432.4,60.8359375 C434.321885,56.4765407 436.946859,52.6562664 440.275,49.375 C443.556267,46.1874841 447.446853,43.6562594 451.946875,41.78125 C456.400022,39.9531159 461.181225,39.0390625 466.290625,39.0390625 C469.712517,39.0390625 472.829674,39.4140588 475.642188,40.1640625 C478.595327,40.9609415 481.196864,41.9687439 483.446875,43.1875 C485.931263,44.5468818 488.017179,45.9062432 489.704688,47.265625 C491.485947,48.7187573 492.985932,50.195305 494.204688,51.6953125 L482.251563,62.3125 C480.564054,60.3437402 478.360951,58.6796943 475.642188,57.3203125 C472.735923,55.8671802 469.618767,55.140625 466.290625,55.140625 C463.431236,55.140625 460.782825,55.6796821 458.345313,56.7578125 C455.860925,57.8359429 453.84532,59.2656161 452.298438,61.046875 C450.70468,62.8750091 449.439067,64.9609258 448.501563,67.3046875 C447.564058,69.6953245 447.095313,72.2265491 447.095313,74.8984375 C447.095313,77.5234506 447.564058,80.0546753 448.501563,82.4921875 C449.439067,84.9765749 450.728117,87.0624916 452.36875,88.75 C454.103134,90.5781341 456.118739,92.0078073 458.415625,93.0390625 C460.665636,94.0703177 463.337485,94.5859375 466.43125,94.5859375 C470.415645,94.5859375 473.860923,93.6953214 476.767188,91.9140625 C479.626577,90.1796788 481.735931,88.2812603 483.095313,86.21875 L494.485938,97.75 C493.267182,99.2968827 491.790634,100.796868 490.05625,102.25 C488.462492,103.609382 486.329701,104.99218 483.657813,106.398438 C481.454677,107.570318 478.829703,108.601558 475.782813,109.492188 C472.923423,110.335942 469.759393,110.757812 466.290625,110.757812 C461.087474,110.757812 456.306272,109.820322 451.946875,107.945312 C447.399977,105.976553 443.509391,103.421891 440.275,100.28125 C436.899983,96.9531084 434.27501,93.1562713 432.4,88.890625 C430.478116,84.484353 429.517188,79.8203371 429.517188,74.8984375 Z" id="thropic" fill="#008395"></path>
                <g id="Group-4" transform="translate(214.000000, 22.000000)">
                    <g id="Group-3">
                        <g id="Group-2">
                            <path d="M52.9366531,32.5000671 C52.9691478,32.5065367 53.0016456,32.5130247 53.0341463,32.5195313 C57.2197601,27.1078338 55.3433838,18.5754968 53.4252669,16.5643264 C59.1956419,17.9950515 64.0603978,20.0937266 68.0195348,22.8603516 C70.7122177,25.0869141 72.0000226,27.8408203 71.8829494,31.1220703 C71.7658763,34.4033203 70.8292909,36.6884766 69.0731933,37.9775391 C63.7923721,35.5499046 58.4135254,33.7240806 52.9366531,32.5000671 Z M18.2982365,16.8154025 C18.4220972,16.6360026 18.5476453,16.482116 18.6731933,16.3564453 C18.6802328,16.4795804 18.6930335,16.5980584 18.7114343,16.7119982 C18.5731834,16.746084 18.4354507,16.7805521 18.2982365,16.8154025 Z" id="Combined-Shape" fill="#D65400"></path>
                            <path d="M2.98536585,38.1445313 C1.22926829,36.8554688 0.292682927,34.5703125 0.175609756,31.2890625 C0.0585365854,28.0078125 1.34634146,25.2539063 4.03902439,23.0273438 C10.2439024,18.6914063 18.6731707,15.9960938 29.3268293,14.9414063 C29.3268293,12.0117188 29.8536585,9.4921875 30.9073171,7.3828125 C34.1853659,2.578125 38.2243902,0.17578125 43.0243902,0.17578125 C45.7170732,0.05859375 47.004878,1.11328125 46.8878049,3.33984375 C46.8878049,4.86328125 46.0097561,5.7421875 44.2536585,5.9765625 C41.6195122,6.328125 39.8634146,9.31640625 40.0390244,10.8984375 C40.2146341,12.4804687 40.0390244,14.2382812 43.2,14.765625 C46.3609756,15.2929687 51.102439,15.46875 53.3853659,16.5234375 C55.3170732,18.4570312 57.2487805,27.0703125 53.0341463,32.5195312 C35.4731707,29.0039062 18.7902439,30.8789062 2.98536585,38.1445313 Z" id="Path-6" fill="#E87E04"></path>
                        </g>
                        <path d="M36.1682085,89.5911696 C36.4676813,89.6884701 36.8184402,89.6782709 37.2292683,89.4726563 C37.5804878,86.6601563 39.6878049,84.1992188 46.1853659,75.9375 C52.6829268,67.6757813 52.1560976,66.6210938 54.6146341,61.3476563 C57.0731707,56.0742188 57.2487805,46.7578125 57.2487805,40.4296875 C57.2369552,40.4214928 57.224812,40.4133087 57.2123506,40.4051352 C61.6480247,41.5401725 65.8162656,43.0717941 69.7170732,45 C69.3658537,47.2851563 69.7170732,50.2734375 67.2585366,61.171875 C63.9219512,75.0585938 50.2243902,83.4960938 45.8341463,84.9023438 C41.4439024,86.3085938 40.3902439,86.8359375 38.6341463,88.4179688 C38.2829268,88.7695313 37.5804878,90.3515625 36.1756098,89.6484375 C36.173224,89.6293326 36.1707572,89.610244 36.1682085,89.5911696 Z M41.7443533,38.1065635 C43.3803224,38.1945543 44.9878779,38.3246803 46.5670199,38.4969415 C45.1050423,38.3619581 43.4974868,38.2318321 41.7443533,38.1065635 Z" id="Combined-Shape" fill="#E87E04"></path>
                        <path d="M3.68780488,44.8242188 C13.1707317,40.1367188 24.2341463,37.7929688 36.8780488,37.7929688 C48.9365854,38.4960938 55.7268293,39.375 57.2487805,40.4296875 C57.2487805,46.7578125 57.0731707,56.0742188 54.6146341,61.3476563 C52.1560976,66.6210938 52.6829268,67.6757813 46.1853659,75.9375 C39.6878049,84.1992188 37.5804878,86.6601563 37.2292683,89.4726563 C35.8243902,90.1757813 35.1219512,88.59375 34.7707317,88.2421875 C33.0146341,86.6601563 31.9609756,86.1328125 27.5707317,84.7265625 C23.1804878,83.3203125 9.48292683,74.8828125 6.14634146,60.9960938 C3.68780488,50.0976563 4.03902439,47.109375 3.68780488,44.8242188 Z" id="Path-7" fill="#F69E00"></path>
                    </g>
                    <path d="M10,42.2974138 C12.3582766,41.3548851 14.952381,40.5890805 17.7823129,40 C18.8435374,52.7241379 19.7278912,58.3793103 22.2040816,65.2715517 C24.6802721,70.4554598 29.2789116,75.6982759 36,81 C24.3265306,77.112069 17.0748299,71.6336207 14.244898,64.5646552 C11.414966,57.4956897 10,50.0732759 10,42.2974138 Z" id="Path-8" fill="#FDD081"></path>
                </g>
            </g>
        </g>
    </g>
</svg>